<mxfile host="app.diagrams.net" modified="2023-09-26T13:24:05.705Z" agent="Mozilla/5.0 (Windows NT 10.0; Win64; x64) AppleWebKit/537.36 (KHTML, like Gecko) Chrome/116.0.0.0 Safari/537.36 OPR/102.0.0.0" etag="y3-Eh7hVzpWrjpGeCdTE" version="21.7.2" type="device">
  <diagram name="Страница — 1" id="-gvCqR_m1Cn3YIUTMfMe">
    <mxGraphModel dx="1393" dy="807" grid="1" gridSize="10" guides="1" tooltips="1" connect="1" arrows="1" fold="1" page="1" pageScale="1" pageWidth="827" pageHeight="1169" math="0" shadow="0">
      <root>
        <mxCell id="0" />
        <mxCell id="1" parent="0" />
        <mxCell id="o6oRUAEh9FtNtiVxMDpD-1" value="&lt;font style=&quot;font-size: 18px;&quot;&gt;Управление штатным расписанием&lt;/font&gt;" style="text;html=1;strokeColor=none;fillColor=none;align=center;verticalAlign=middle;whiteSpace=wrap;rounded=0;" vertex="1" parent="1">
          <mxGeometry x="590" y="370" width="310" height="30" as="geometry" />
        </mxCell>
        <mxCell id="o6oRUAEh9FtNtiVxMDpD-3" value="Управление штатным расписанием" style="rounded=0;whiteSpace=wrap;html=1;" vertex="1" parent="1">
          <mxGeometry x="640" y="560" width="210" height="30" as="geometry" />
        </mxCell>
        <mxCell id="o6oRUAEh9FtNtiVxMDpD-4" value="+ добавить подразделение()&lt;br&gt;- удалить подразделение()&lt;br&gt;+ добавить сотрудника()&lt;br&gt;- удалить сотрудника()" style="rounded=0;whiteSpace=wrap;html=1;" vertex="1" parent="1">
          <mxGeometry x="640" y="590" width="210" height="80" as="geometry" />
        </mxCell>
        <mxCell id="o6oRUAEh9FtNtiVxMDpD-5" value="Подразделение" style="rounded=0;whiteSpace=wrap;html=1;" vertex="1" parent="1">
          <mxGeometry x="520" y="750" width="210" height="30" as="geometry" />
        </mxCell>
        <mxCell id="o6oRUAEh9FtNtiVxMDpD-6" value="+ код подразделения ()&lt;br&gt;+ название отдела ()&lt;br&gt;+ номер кабинета ()&lt;br&gt;+ номер телефона отдела ()" style="rounded=0;whiteSpace=wrap;html=1;" vertex="1" parent="1">
          <mxGeometry x="520" y="780" width="210" height="80" as="geometry" />
        </mxCell>
        <mxCell id="o6oRUAEh9FtNtiVxMDpD-7" value="Сотрудник" style="rounded=0;whiteSpace=wrap;html=1;" vertex="1" parent="1">
          <mxGeometry x="760" y="750" width="210" height="30" as="geometry" />
        </mxCell>
        <mxCell id="o6oRUAEh9FtNtiVxMDpD-8" value="+ код сотрудника&lt;br&gt;+ ФИО сотрудника&lt;br&gt;+ ИНН сотрудника&lt;br&gt;+ СНИЛС сотрудника&lt;br&gt;+ номер телефона&lt;br&gt;+ дата рождения&lt;br&gt;+ должность&amp;nbsp;" style="rounded=0;whiteSpace=wrap;html=1;" vertex="1" parent="1">
          <mxGeometry x="760" y="780" width="210" height="110" as="geometry" />
        </mxCell>
        <mxCell id="o6oRUAEh9FtNtiVxMDpD-9" value="Управление штатным расписанием" style="rounded=0;whiteSpace=wrap;html=1;" vertex="1" parent="1">
          <mxGeometry x="640" y="430" width="210" height="30" as="geometry" />
        </mxCell>
        <mxCell id="o6oRUAEh9FtNtiVxMDpD-10" value="+ штатное расписание[ ]" style="rounded=0;whiteSpace=wrap;html=1;" vertex="1" parent="1">
          <mxGeometry x="640" y="460" width="210" height="30" as="geometry" />
        </mxCell>
        <mxCell id="o6oRUAEh9FtNtiVxMDpD-11" value="" style="endArrow=classic;html=1;rounded=0;" edge="1" parent="1" source="o6oRUAEh9FtNtiVxMDpD-10" target="o6oRUAEh9FtNtiVxMDpD-3">
          <mxGeometry width="50" height="50" relative="1" as="geometry">
            <mxPoint x="540" y="630" as="sourcePoint" />
            <mxPoint x="590" y="580" as="targetPoint" />
          </mxGeometry>
        </mxCell>
        <mxCell id="o6oRUAEh9FtNtiVxMDpD-12" value="" style="endArrow=none;html=1;rounded=0;" edge="1" parent="1" source="o6oRUAEh9FtNtiVxMDpD-5" target="o6oRUAEh9FtNtiVxMDpD-4">
          <mxGeometry width="50" height="50" relative="1" as="geometry">
            <mxPoint x="380" y="770" as="sourcePoint" />
            <mxPoint x="430" y="720" as="targetPoint" />
          </mxGeometry>
        </mxCell>
        <mxCell id="o6oRUAEh9FtNtiVxMDpD-13" value="" style="endArrow=none;html=1;rounded=0;" edge="1" parent="1" source="o6oRUAEh9FtNtiVxMDpD-7" target="o6oRUAEh9FtNtiVxMDpD-4">
          <mxGeometry width="50" height="50" relative="1" as="geometry">
            <mxPoint x="1020" y="700" as="sourcePoint" />
            <mxPoint x="1070" y="650" as="targetPoint" />
          </mxGeometry>
        </mxCell>
      </root>
    </mxGraphModel>
  </diagram>
</mxfile>
